<svg xmlns="http://www.w3.org/2000/svg" width="459" height="70" fill="none" viewBox="0 0 459 70"><g filter="url(#filter0_dd_61_179)"><mask id="path-1-outside-1_61_179" width="455" height="66" x="0" y="0" fill="#000" maskUnits="userSpaceOnUse"><rect width="455" height="66" fill="#fff"/><path d="M428.751 2V8.10547H436.827V16.5H444.007V23.5996H444.054V25.6582H452.083V41.8574H444.054V48.3662H436.396V57.0352H428.737V63.2266H413.421V63.0234H40.6484V63.2266H25.332V57.1211H17.2559V48.7266H10.0762V41.627H10.0293V39.5684H2V23.3691H10.0293V16.8604H17.6875V8.19141H25.3457V2H428.751Z"/></mask><path fill="#fff" d="M428.751 2V8.10547H436.827V16.5H444.007V23.5996H444.054V25.6582H452.083V41.8574H444.054V48.3662H436.396V57.0352H428.737V63.2266H413.421V63.0234H40.6484V63.2266H25.332V57.1211H17.2559V48.7266H10.0762V41.627H10.0293V39.5684H2V23.3691H10.0293V16.8604H17.6875V8.19141H25.3457V2H428.751Z"/><path fill="#8E63FF" d="M428.751 2H430.751V0H428.751V2ZM428.751 8.10547H426.751V10.1055H428.751V8.10547ZM436.827 8.10547H438.827V6.10547H436.827V8.10547ZM436.827 16.5H434.827V18.5H436.827V16.5ZM444.007 16.5H446.007V14.5H444.007V16.5ZM444.007 23.5996H442.007V25.5996H444.007V23.5996ZM444.054 23.5996H446.054V21.5996H444.054V23.5996ZM444.054 25.6582H442.054V27.6582H444.054V25.6582ZM452.083 25.6582H454.083V23.6582H452.083V25.6582ZM452.083 41.8574V43.8574H454.083V41.8574H452.083ZM444.054 41.8574V39.8574H442.054V41.8574H444.054ZM444.054 48.3662V50.3662H446.054V48.3662H444.054ZM436.396 48.3662V46.3662H434.396V48.3662H436.396ZM436.396 57.0352V59.0352H438.396V57.0352H436.396ZM428.737 57.0352V55.0352H426.737V57.0352H428.737ZM428.737 63.2266V65.2266H430.737V63.2266H428.737ZM413.421 63.2266H411.421V65.2266H413.421V63.2266ZM413.421 63.0234H415.421V61.0234H413.421V63.0234ZM40.6484 63.0234V61.0234H38.6484V63.0234H40.6484ZM40.6484 63.2266V65.2266H42.6484V63.2266H40.6484ZM25.332 63.2266H23.332V65.2266H25.332V63.2266ZM25.332 57.1211H27.332V55.1211H25.332V57.1211ZM17.2559 57.1211H15.2559V59.1211H17.2559V57.1211ZM17.2559 48.7266H19.2559V46.7266H17.2559V48.7266ZM10.0762 48.7266H8.07617V50.7266H10.0762V48.7266ZM10.0762 41.627H12.0762V39.627H10.0762V41.627ZM10.0293 41.627H8.0293V43.627H10.0293V41.627ZM10.0293 39.5684H12.0293V37.5684H10.0293V39.5684ZM2 39.5684H0V41.5684H2V39.5684ZM2 23.3691V21.3691H0V23.3691H2ZM10.0293 23.3691V25.3691H12.0293V23.3691H10.0293ZM10.0293 16.8604V14.8604H8.0293V16.8604H10.0293ZM17.6875 16.8604V18.8604H19.6875V16.8604H17.6875ZM17.6875 8.19141V6.19141H15.6875V8.19141H17.6875ZM25.3457 8.19141V10.1914H27.3457V8.19141H25.3457ZM25.3457 2V0H23.3457V2H25.3457ZM428.751 2H426.751V8.10547H428.751H430.751V2H428.751ZM428.751 8.10547V10.1055H436.827V8.10547V6.10547H428.751V8.10547ZM436.827 8.10547H434.827V16.5H436.827H438.827V8.10547H436.827ZM436.827 16.5V18.5H444.007V16.5V14.5H436.827V16.5ZM444.007 16.5H442.007V23.5996H444.007H446.007V16.5H444.007ZM444.007 23.5996V25.5996H444.054V23.5996V21.5996H444.007V23.5996ZM444.054 23.5996H442.054V25.6582H444.054H446.054V23.5996H444.054ZM444.054 25.6582V27.6582H452.083V25.6582V23.6582H444.054V25.6582ZM452.083 25.6582H450.083V41.8574H452.083H454.083V25.6582H452.083ZM452.083 41.8574V39.8574H444.054V41.8574V43.8574H452.083V41.8574ZM444.054 41.8574H442.054V48.3662H444.054H446.054V41.8574H444.054ZM444.054 48.3662V46.3662H436.396V48.3662V50.3662H444.054V48.3662ZM436.396 48.3662H434.396V57.0352H436.396H438.396V48.3662H436.396ZM436.396 57.0352V55.0352H428.737V57.0352V59.0352H436.396V57.0352ZM428.737 57.0352H426.737V63.2266H428.737H430.737V57.0352H428.737ZM428.737 63.2266V61.2266H413.421V63.2266V65.2266H428.737V63.2266ZM413.421 63.2266H415.421V63.0234H413.421H411.421V63.2266H413.421ZM413.421 63.0234V61.0234H40.6484V63.0234V65.0234H413.421V63.0234ZM40.6484 63.0234H38.6484V63.2266H40.6484H42.6484V63.0234H40.6484ZM40.6484 63.2266V61.2266H25.332V63.2266V65.2266H40.6484V63.2266ZM25.332 63.2266H27.332V57.1211H25.332H23.332V63.2266H25.332ZM25.332 57.1211V55.1211H17.2559V57.1211V59.1211H25.332V57.1211ZM17.2559 57.1211H19.2559V48.7266H17.2559H15.2559V57.1211H17.2559ZM17.2559 48.7266V46.7266H10.0762V48.7266V50.7266H17.2559V48.7266ZM10.0762 48.7266H12.0762V41.627H10.0762H8.07617V48.7266H10.0762ZM10.0762 41.627V39.627H10.0293V41.627V43.627H10.0762V41.627ZM10.0293 41.627H12.0293V39.5684H10.0293H8.0293V41.627H10.0293ZM10.0293 39.5684V37.5684H2V39.5684V41.5684H10.0293V39.5684ZM2 39.5684H4V23.3691H2H0V39.5684H2ZM2 23.3691V25.3691H10.0293V23.3691V21.3691H2V23.3691ZM10.0293 23.3691H12.0293V16.8604H10.0293H8.0293V23.3691H10.0293ZM10.0293 16.8604V18.8604H17.6875V16.8604V14.8604H10.0293V16.8604ZM17.6875 16.8604H19.6875V8.19141H17.6875H15.6875V16.8604H17.6875ZM17.6875 8.19141V10.1914H25.3457V8.19141V6.19141H17.6875V8.19141ZM25.3457 8.19141H27.3457V2H25.3457H23.3457V8.19141H25.3457ZM25.3457 2V4H428.751V2V0H25.3457V2Z" mask="url(#path-1-outside-1_61_179)"/></g><path fill="#AA52E9" d="M90 44.25V25.5H93.75V21.75H97.5V18H108.75V21.75H112.5V25.5H116.25V44.25H108.75V36.75H97.5V44.25H90ZM97.5 33H108.75V25.5H105V21.75H101.25V25.5H97.5V33ZM120 48V25.5H142.5V29.25H146.25V36.75H142.5V40.5H127.5V48H120ZM127.5 36.75H138.75V29.25H127.5V36.75ZM150 48V25.5H172.5V29.25H176.25V36.75H172.5V40.5H157.5V48H150ZM157.5 36.75H168.75V29.25H157.5V36.75ZM183.75 44.25V40.5H191.25V21.75H187.5V18H198.75V40.5H206.25V44.25H183.75ZM213.75 48V44.25H228.75V40.5H213.75V36.75H210V25.5H217.5V36.75H228.75V25.5H236.25V44.25H232.5V48H213.75ZM270 44.25V18H277.5V21.75H281.25V25.5H285V29.25H288.75V18H296.25V44.25H288.75V36.75H285V33H281.25V29.25H277.5V44.25H270ZM303.75 44.25V40.5H300V29.25H303.75V25.5H322.5V29.25H326.25V40.5H322.5V44.25H303.75ZM307.5 40.5H318.75V29.25H307.5V40.5ZM337.5 40.5H341.25V44.25H333.75V40.5H330V25.5H337.5V40.5ZM345 25.5V40.5H341.25V25.5H345ZM356.25 25.5V40.5H352.5V44.25H345V40.5H348.75V25.5H356.25Z"/><defs><filter id="filter0_dd_61_179" width="458.083" height="69.227" x="0" y="0" color-interpolation-filters="sRGB" filterUnits="userSpaceOnUse"><feFlood flood-opacity="0" result="BackgroundImageFix"/><feColorMatrix in="SourceAlpha" result="hardAlpha" type="matrix" values="0 0 0 0 0 0 0 0 0 0 0 0 0 0 0 0 0 0 127 0"/><feOffset dx="4" dy="4"/><feComposite in2="hardAlpha" operator="out"/><feColorMatrix type="matrix" values="0 0 0 0 0.572549 0 0 0 0 0.270588 0 0 0 0 0.788235 0 0 0 1 0"/><feBlend in2="BackgroundImageFix" mode="normal" result="effect1_dropShadow_61_179"/><feColorMatrix in="SourceAlpha" result="hardAlpha" type="matrix" values="0 0 0 0 0 0 0 0 0 0 0 0 0 0 0 0 0 0 127 0"/><feOffset dx="3" dy="3"/><feComposite in2="hardAlpha" operator="out"/><feColorMatrix type="matrix" values="0 0 0 0 0.278431 0 0 0 0 0.2 0 0 0 0 0.682353 0 0 0 1 0"/><feBlend in2="effect1_dropShadow_61_179" mode="normal" result="effect2_dropShadow_61_179"/><feBlend in="SourceGraphic" in2="effect2_dropShadow_61_179" mode="normal" result="shape"/></filter></defs></svg>