<svg width="55" height="52" viewBox="0 0 55 52" fill="none" xmlns="http://www.w3.org/2000/svg">
<rect y="14.0195" width="18.3333" height="18.6029" fill="#EA1F7D"/>
<rect y="18.873" width="18.3333" height="18.6029" fill="#EA1F7D"/>
<rect x="9.1665" y="27.5" width="18.3333" height="18.6029" fill="#EA1F7D"/>
<rect x="18.3335" y="32.623" width="18.3333" height="18.6029" fill="#EA1F7D"/>
<rect x="26.4214" y="27.7695" width="18.3333" height="18.6029" fill="#EA1F7D"/>
<rect x="36.6665" y="18.334" width="18.3333" height="18.6029" fill="#EA1F7D"/>
<rect x="18.3335" y="12.9414" width="18.3333" height="18.6029" fill="#EA1F7D"/>
<rect x="18.3335" y="18.873" width="18.3333" height="18.6029" fill="#EA1F7D"/>
<rect x="26.4214" y="5.93164" width="18.3333" height="18.6029" fill="#EA1F7D"/>
<rect x="36.6665" y="14.0195" width="18.3333" height="18.6029" fill="#EA1F7D"/>
<rect x="9.1665" y="5.93164" width="18.3333" height="18.6029" fill="#EA1F7D"/>
<rect x="18.3335" y="0.269531" width="18.3333" height="18.6029" fill="#EA1F7D"/>
<rect y="23.4551" width="15.3676" height="14.2892" fill="#9C2BA4"/>
<rect y="20.2207" width="15.3676" height="14.2892" fill="#9C2BA4"/>
<rect x="8.8042" y="29.6152" width="8.80438" height="4.80237" fill="#9C2BA4"/>
<rect y="32.8164" width="8.80438" height="4.80237" fill="#6F1A75"/>
<rect y="32.8164" width="8.80438" height="4.80237" fill="#6F1A75"/>
<rect y="32.8164" width="8.80438" height="4.80237" fill="#6F1A75"/>
<rect x="18.4092" y="35.2168" width="8.80438" height="4.80237" fill="#9C2BA4"/>
<rect x="9.1665" y="32.084" width="15.3676" height="14.2892" fill="#9C2BA4"/>
<rect x="18.3335" y="36.9355" width="15.3676" height="14.2892" fill="#9C2BA4"/>
<rect x="21.6108" y="36.8184" width="15.3676" height="14.2892" fill="#9C2BA4"/>
<rect x="9.1665" y="5.66211" width="12.6716" height="11.5931" fill="white"/>
<rect x="18.3335" width="12.6716" height="11.5931" fill="white"/>
<rect x="24.2646" width="12.6716" height="11.5931" fill="white"/>
<rect x="29.1177" y="5.93164" width="12.6716" height="11.5931" fill="white"/>
<rect x="32.0835" y="5.93164" width="12.6716" height="11.5931" fill="white"/>
<rect x="32.0835" y="12.9414" width="12.6716" height="11.5931" fill="white"/>
<rect x="39.3628" y="14.0195" width="12.6716" height="13.4803" fill="white"/>
<rect x="8.8042" y="36.8184" width="8.80438" height="4.80237" fill="#6F1A75"/>
<rect x="8.8042" y="36.8184" width="8.80438" height="4.80237" fill="#6F1A75"/>
<rect x="8.8042" y="36.8184" width="8.80438" height="4.80237" fill="#6F1A75"/>
<rect x="8.8042" y="41.6211" width="8.80438" height="4.80237" fill="#6F1A75"/>
<rect x="8.8042" y="41.6211" width="8.80438" height="4.80237" fill="#6F1A75"/>
<rect x="8.8042" y="41.6211" width="8.80438" height="4.80237" fill="#6F1A75"/>
<rect x="18.4092" y="46.4219" width="8.80438" height="4.80237" fill="#6F1A75"/>
<rect x="18.4092" y="46.4219" width="8.80438" height="4.80237" fill="#6F1A75"/>
<rect x="18.4092" y="46.4219" width="8.80438" height="4.80237" fill="#6F1A75"/>
<rect x="16.0078" y="41.6211" width="8.80438" height="4.80237" fill="#6F1A75"/>
<rect x="16.0078" y="41.6211" width="8.80438" height="4.80237" fill="#6F1A75"/>
<rect x="16.0078" y="41.6211" width="8.80438" height="4.80237" fill="#6F1A75"/>
<rect y="28.0137" width="4.80239" height="4.80237" fill="#6F1A75"/>
<rect y="28.0137" width="4.80239" height="4.80237" fill="#6F1A75"/>
<rect y="28.0137" width="4.80239" height="4.80237" fill="#6F1A75"/>
</svg>
