<svg width="16" height="14" viewBox="0 0 16 14" fill="none" xmlns="http://www.w3.org/2000/svg">
<rect x="4.979" width="5.97563" height="8.96355" fill="#F2C94C"/>
<rect y="3.98438" width="8.96345" height="5.9757" fill="#F2C94C"/>
<rect x="4.979" y="4.97852" width="5.97563" height="8.96355" fill="#F2C94C"/>
<rect x="6.97119" y="3.98438" width="8.96345" height="5.9757" fill="#F2C94C"/>
<rect x="7.08594" width="3.88576" height="4.1143" fill="#FFE08A"/>
<rect x="8.95996" width="1.92" height="2.56003" fill="#FFF1CA"/>
<rect y="3.88672" width="3.88576" height="4.1143" fill="#E9B949"/>
<rect y="5.94336" width="3.88576" height="4.1143" fill="#E9B949"/>
<rect x="3.2002" y="5.94336" width="3.88576" height="4.1143" fill="#E9B949"/>
<rect x="5.02881" y="10.0566" width="3.88576" height="3.88573" fill="#E9B949"/>
<rect x="8.45752" y="3.88672" width="3.88576" height="4.1143" fill="#FFE08A"/>
<rect x="12.1143" y="3.88672" width="3.88576" height="4.1143" fill="#FFE08A"/>
<rect x="10.2397" y="3.83984" width="1.92" height="2.56003" fill="#FFF1CA"/>
<rect x="12.1602" y="3.83984" width="1.92" height="2.56003" fill="#FFF1CA"/>
<rect x="14.0801" y="3.83984" width="1.92" height="2.56003" fill="#FFF1CA"/>
<rect x="9.6001" y="1.91992" width="1.28" height="2.56003" fill="#FFF1CA"/>
</svg>
